<svg width="27" height="27" viewBox="0 0 27 27" fill="none" xmlns="http://www.w3.org/2000/svg">
<path d="M26.3617 15.3593C26.0857 15.2903 25.8097 15.3593 25.5681 15.5318C24.671 16.2909 23.6359 16.912 22.4972 17.3261C21.4275 17.7401 20.2544 17.9471 19.0122 17.9471C16.2173 17.9471 13.6639 16.8085 11.8352 14.9797C10.0064 13.151 8.86776 10.5976 8.86776 7.8027C8.86776 6.62953 9.07479 5.49087 9.41984 4.45572C9.79939 3.35156 10.3515 2.35092 11.0761 1.4883C11.3866 1.10874 11.3176 0.556663 10.9381 0.246119C10.6965 0.0735945 10.4205 0.00458463 10.1444 0.0735945C7.21152 0.867208 4.65816 2.62696 2.8294 4.97329C1.06965 7.28512 0 10.149 0 13.289C0 17.05 1.51822 20.466 4.00257 22.9504C6.48692 25.4347 9.90291 26.9529 13.6639 26.9529C16.8384 26.9529 19.7713 25.8488 22.1176 24.02C24.4985 22.1567 26.2237 19.4999 26.9483 16.4634C27.1209 15.9459 26.8448 15.4628 26.3617 15.3593ZM21.0825 22.5708C19.0812 24.158 16.5278 25.1242 13.733 25.1242C10.455 25.1242 7.48756 23.7785 5.34826 21.6392C3.20896 19.4999 1.86326 16.5324 1.86326 13.2545C1.86326 10.5286 2.76039 8.04423 4.31311 6.04295C5.38277 4.66275 6.72846 3.52409 8.28118 2.73047C8.10865 3.11003 7.93613 3.48958 7.79811 3.90364C7.34955 5.14582 7.14252 6.457 7.14252 7.8372C7.14252 11.1152 8.48821 14.1171 10.6275 16.2564C12.7668 18.3957 15.7687 19.7414 19.0467 19.7414C20.4959 19.7414 21.8761 19.4999 23.1528 19.0168C23.6014 18.8443 24.0499 18.6717 24.464 18.4647C23.6359 20.0519 22.4972 21.4666 21.0825 22.5708Z" fill="white"/>
</svg>
