<svg width="18" height="16" viewBox="0 0 18 16" fill="none" xmlns="http://www.w3.org/2000/svg">
<path d="M17.6783 7.23122L11.1135 0.752804C10.6902 0.333859 10.0057 0.339292 9.58673 0.763621C9.16779 1.18795 9.1721 1.87141 9.59755 2.29036L14.289 6.92024H1.71762C1.12053 6.92024 0.637909 7.40286 0.637909 7.99995C0.637909 8.59703 1.12053 9.07971 1.71762 9.07971H14.289L9.59755 13.7096C9.17215 14.1285 9.1689 14.812 9.58673 15.2363C9.79834 15.4501 10.0769 15.5581 10.3555 15.5581C10.6298 15.5581 10.904 15.4544 11.1135 15.2471L17.6783 8.76867C17.8834 8.5657 18 8.28925 18 7.9999C18 7.71065 17.8845 7.43531 17.6783 7.23122Z" fill="white"/>
</svg>
